<svg version="1.1" id="Layer_1" xmlns="http://www.w3.org/2000/svg" xmlns:xlink="http://www.w3.org/1999/xlink" x="0px" y="0px"
	 width="100%" viewBox="0 0 526 539" enable-background="new 0 0 526 539" xml:space="preserve">
<path fill="#f0e9e1" opacity="1.000000" stroke="none" 
	d="
M519.502075,292.484253 
	C513.163391,359.358582 486.900543,416.456970 438.833527,462.887177 
	C398.138184,502.196716 349.523804,526.602844 293.072235,531.868591 
	C186.765045,541.784790 104.961090,499.413971 47.544296,410.443207 
	C18.033649,364.714661 5.998720,313.426239 8.088887,259.078644 
	C12.207015,152.000931 79.078804,56.034313 180.892471,20.044790 
	C291.928589,-19.204725 414.365234,23.990353 478.322662,124.806557 
	C510.723267,175.879700 523.869812,231.836273 519.502075,292.484253 
M83.961349,251.503433 
	C83.737305,251.543976 83.513260,251.584503 83.289215,251.625031 
	C83.439545,251.841278 83.589882,252.057541 83.723724,253.048553 
	C92.934677,282.368225 110.443375,305.569244 136.013382,322.422577 
	C147.797684,330.189667 160.852997,334.132629 175.315323,331.064392 
	C185.810944,328.837738 195.084946,324.281860 202.978729,317.109497 
	C209.398529,311.276428 209.119217,304.671783 202.272690,299.444427 
	C199.404465,297.254517 196.134888,295.414917 192.785706,294.067474 
	C186.189102,291.413513 179.424179,289.172150 172.702774,286.835175 
	C152.506912,279.813232 132.151703,273.215820 112.158112,265.660370 
	C102.451485,261.992340 93.412643,256.557129 83.961349,251.503433 
M276.185699,247.832809 
	C288.261780,246.536255 300.362030,245.430618 312.409454,243.907547 
	C349.166077,239.260590 383.493958,227.255905 415.441467,208.664642 
	C426.751740,202.082809 437.357025,194.289398 448.662018,186.798752 
	C452.238403,191.302444 455.864929,196.012848 459.675964,200.568909 
	C460.644531,201.726791 462.205566,203.163971 463.484039,203.153946 
	C469.096405,203.109909 474.705017,202.582199 480.428101,202.222763 
	C456.960968,113.911194 371.056824,32.934654 258.678345,35.719749 
	C146.802872,38.492378 68.774834,122.564377 48.797638,199.748505 
	C54.231487,202.113327 58.070992,200.399933 61.370064,195.538574 
	C64.196457,191.373734 67.899162,187.803574 70.434395,184.872192 
	C86.049934,194.940201 100.611649,205.209076 115.993973,214.050201 
	C142.287918,229.162903 171.182159,237.647049 200.623901,243.929825 
	C225.192383,249.172638 250.239853,248.914825 276.185699,247.832809 
M356.922546,483.446960 
	C425.119354,450.164398 467.006714,395.869629 484.692108,322.581787 
	C491.646667,293.762238 492.708405,247.518311 487.477234,241.291855 
	C486.810486,246.018112 486.430115,250.835571 485.423340,255.518372 
	C476.687103,296.153534 455.727325,329.135651 422.935272,354.605530 
	C408.709167,365.655090 393.065979,374.029053 375.352386,377.796692 
	C354.537079,382.224121 334.334473,379.772919 314.882629,371.093140 
	C297.178497,363.193176 281.993683,352.352356 272.107635,335.131500 
	C271.522522,334.112305 269.947693,333.286591 268.720062,333.094269 
	C266.605438,332.763031 264.374908,333.220703 262.239899,332.961456 
	C254.323074,332.000061 247.437424,332.868408 244.610489,341.898132 
	C244.473190,342.336700 243.977310,342.658051 243.665527,343.047668 
	C217.566788,375.661652 165.320831,392.519104 120.420013,368.513428 
	C89.214752,351.829895 66.057709,327.202789 49.874996,295.949432 
	C45.496174,287.492706 42.030338,278.563232 38.184902,269.939240 
	C35.883492,431.160828 198.676178,554.218079 356.922546,483.446960 
M395.046875,271.558838 
	C381.315765,276.057617 367.479279,280.262970 353.885620,285.144531 
	C342.212097,289.336548 330.418610,293.528564 319.429474,299.181213 
	C311.375336,303.324158 311.109650,310.683655 317.908722,316.803864 
	C332.100281,329.578339 348.581879,335.390930 367.582764,330.226898 
	C389.383148,324.302063 404.703247,309.307556 417.840637,292.010773 
	C426.791107,280.226562 433.424927,267.044647 436.998444,252.485504 
	C423.085876,258.805084 409.414978,265.014893 395.046875,271.558838 
z"/>
</svg>